<svg width="162" height="80" viewBox="0 0 162 80" fill="none" xmlns="http://www.w3.org/2000/svg">
<g id="Group 1000002715">
<path id="Vector" fill-rule="evenodd" clip-rule="evenodd" d="M157.203 52.4578C146.641 68.4544 116.346 79.9999 80.6104 79.9999C44.8748 79.9999 14.2443 68.328 3.8418 52.183L4.63311 51.9357L8.3424 50.7762L34.5327 42.5553L32.0654 49.4079C31.8566 49.9849 32.45 50.5399 33.016 50.2926L56.1345 40.3078L48.2983 51.9027C47.8697 52.5292 48.6061 53.3095 49.26 52.9029L72.4664 38.5713V47.2703C72.4664 47.8857 73.2083 48.2045 73.6644 47.7758L76.0438 45.5228L79.7916 54.2217C80.0279 54.7658 80.7917 54.7987 81.072 54.2712L87.1497 42.6762L115.346 56.9364C115.989 57.2716 116.654 56.5188 116.247 55.9143L108.817 44.7754C108.647 44.5281 108.658 44.1984 108.839 43.9621L112.043 39.6099L115.78 44.2589C116.115 44.6655 116.742 44.5941 116.978 44.1215L118.951 40.1155L136.019 52.7215C136.415 53.0073 136.981 52.8205 137.118 52.3534L138.893 46.5119L157.159 52.4138L157.181 52.4248C157.192 52.4358 157.203 52.4358 157.22 52.4468L157.203 52.4578Z" fill="white"/>
<path id="Vector_2" fill-rule="evenodd" clip-rule="evenodd" d="M161.219 40.0658C161.219 40.4505 161.208 40.8187 161.181 41.1869C161.17 41.5056 161.143 41.8133 161.11 42.121C161.088 42.4068 161.049 42.6871 161.011 42.9728C160.989 43.1706 160.95 43.3685 160.912 43.5663C160.802 44.2587 160.642 44.9456 160.445 45.627C160.384 45.8743 160.307 46.1216 160.236 46.3524C160.214 46.4403 160.186 46.5227 160.148 46.6107C160.049 46.9184 159.939 47.2261 159.829 47.5229C159.741 47.7592 159.642 48.001 159.532 48.2373C159.51 48.3087 159.472 48.3966 159.434 48.4735L159.395 48.4626L159.373 48.4516L107.449 23.2614C107.13 23.113 106.745 23.2119 106.547 23.5087L99.5738 33.9221L80.9889 11.0839C80.7306 10.7872 80.2855 10.7377 79.9888 10.996L54.1721 32.6363L41.9342 31.4658C41.7364 31.4438 41.5385 31.4658 41.3572 31.5537C37.9941 33.0704 4.08846 48.4241 2.15414 49.2978C2.06621 49.1385 1.99477 48.9901 1.93433 48.8307C1.83541 48.6109 1.7365 48.3746 1.63758 48.1383C1.43975 47.6712 1.25292 47.1877 1.11004 46.7206C1.01113 46.4348 0.923202 46.1655 0.851763 45.8798C0.566011 44.9676 0.373677 44.0444 0.236296 43.1047C0.137382 42.4892 0.076934 41.8573 0.0384673 41.2308C0.0164864 40.8461 6.27514e-07 40.456 6.27514e-07 40.0603C-0.00549462 17.942 36.0818 0 80.6097 0C125.138 0 161.225 17.942 161.225 40.0658H161.219Z" fill="white"/>
</g>
</svg>
